<?xml version="1.0" encoding="UTF-8" standalone="no"?>
<svg
        xmlns:dc="http://purl.org/dc/elements/1.1/"
        xmlns:cc="http://creativecommons.org/ns#"
        xmlns:rdf="http://www.w3.org/1999/02/22-rdf-syntax-ns#"
        xmlns="http://www.w3.org/2000/svg"
        xmlns:sodipodi="http://sodipodi.sourceforge.net/DTD/sodipodi-0.dtd"
        xmlns:inkscape="http://www.inkscape.org/namespaces/inkscape"
        height="1024"
        width="1024"
        version="1.1"
        id="svg12"
        sodipodi:docname="18238207151557740346.svg"
        inkscape:version="0.92.5 (2060ec1f9f, 2020-04-08)">
    <metadata
            id="metadata18">
        <rdf:RDF>
            <cc:Work
                    rdf:about="">
                <dc:format>image/svg+xml</dc:format>
                <dc:type
                        rdf:resource="http://purl.org/dc/dcmitype/StillImage"/>
                <dc:title></dc:title>
            </cc:Work>
        </rdf:RDF>
    </metadata>
    <defs
            id="defs16"/>
    <sodipodi:namedview
            pagecolor="#ffffff"
            bordercolor="#666666"
            borderopacity="1"
            objecttolerance="10"
            gridtolerance="10"
            guidetolerance="10"
            inkscape:pageopacity="0"
            inkscape:pageshadow="2"
            inkscape:window-width="902"
            inkscape:window-height="480"
            id="namedview14"
            showgrid="false"
            inkscape:zoom="0.21728802"
            inkscape:cx="-79.180266"
            inkscape:cy="316.14962"
            inkscape:window-x="321"
            inkscape:window-y="73"
            inkscape:window-maximized="0"
            inkscape:current-layer="svg12"/>
    <g
            transform="matrix(56.888889,0,0,44.521739,-170.66667,-45830.678)"
            id="g10">
        <path
                d="m 5,1030.4 c -1.1046,0 -2,0.9 -2,2 v 8 4 6 c 0,1.1 0.8954,2 2,2 h 14 c 1.105,0 2,-0.9 2,-2 v -6 -4 -4 l -6,-6 z"
                id="path2"
                inkscape:connector-curvature="0"
                style="fill:#95a5a6"/>
        <path
                d="m 5,1029.4 c -1.1046,0 -2,0.9 -2,2 v 8 4 6 c 0,1.1 0.8954,2 2,2 h 14 c 1.105,0 2,-0.9 2,-2 v -6 -4 -4 l -6,-6 z"
                id="path4"
                inkscape:connector-curvature="0"
                style="fill:#bdc3c7"/>
        <path
                d="m 21,1035.4 -6,-6 v 4 c 0,1.1 0.895,2 2,2 z"
                id="path6"
                inkscape:connector-curvature="0"
                style="fill:#95a5a6"/>
        <path
                d="M 6,8 V 9 H 18 V 8 Z m 0,3 v 1 h 12 v -1 z m 0,3 v 1 h 12 v -1 z m 0,3 v 1 h 12 v -1 z"
                transform="translate(0,1028.4)"
                id="path8"
                inkscape:connector-curvature="0"
                style="fill:#95a5a6"/>
    </g>
</svg>
