<?xml version="1.0" encoding="UTF-8" standalone="no"?>
<!-- Generator: Adobe Illustrator 18.0.0, SVG Export Plug-In . SVG Version: 6.00 Build 0)  -->

<svg
   xmlns:dc="http://purl.org/dc/elements/1.1/"
   xmlns:cc="http://creativecommons.org/ns#"
   xmlns:rdf="http://www.w3.org/1999/02/22-rdf-syntax-ns#"
   xmlns:svg="http://www.w3.org/2000/svg"
   xmlns="http://www.w3.org/2000/svg"
   xmlns:sodipodi="http://sodipodi.sourceforge.net/DTD/sodipodi-0.dtd"
   xmlns:inkscape="http://www.inkscape.org/namespaces/inkscape"
   version="1.1"
   id="Capa_1"
   x="0px"
   y="0px"
   viewBox="0 0 1024 1024"
   xml:space="preserve"
   sodipodi:docname="save_icon.svg"
   width="1024"
   height="1024"
   inkscape:version="0.92.5 (2060ec1f9f, 2020-04-08)"><metadata
   id="metadata65"><rdf:RDF><cc:Work
       rdf:about=""><dc:format>image/svg+xml</dc:format><dc:type
         rdf:resource="http://purl.org/dc/dcmitype/StillImage" /><dc:title></dc:title></cc:Work></rdf:RDF></metadata><defs
   id="defs63" /><sodipodi:namedview
   pagecolor="#ffffff"
   bordercolor="#666666"
   borderopacity="1"
   objecttolerance="10"
   gridtolerance="10"
   guidetolerance="10"
   inkscape:pageopacity="0"
   inkscape:pageshadow="2"
   inkscape:window-width="1366"
   inkscape:window-height="703"
   id="namedview61"
   showgrid="false"
   inkscape:zoom="0.25431035"
   inkscape:cx="-155.62305"
   inkscape:cy="618.64567"
   inkscape:window-x="0"
   inkscape:window-y="0"
   inkscape:window-maximized="1"
   inkscape:current-layer="Capa_1" />
<g
   id="g28"
   transform="matrix(18.618182,0,0,17.655172,-27.927273,0)">
	<g
   id="g18">
		<polygon
   style="fill:#efebde"
   points="1.5,0 1.5,58 46.5,58 46.5,14 32.5,0 "
   id="polygon2" />
		<g
   id="g14">
			<path
   style="fill:#d5d0bb"
   d="m 11.5,23 h 25 c 0.552,0 1,-0.447 1,-1 0,-0.553 -0.448,-1 -1,-1 h -25 c -0.552,0 -1,0.447 -1,1 0,0.553 0.448,1 1,1 z"
   id="path4"
   inkscape:connector-curvature="0" />
			<path
   style="fill:#d5d0bb"
   d="m 11.5,15 h 10 c 0.552,0 1,-0.447 1,-1 0,-0.553 -0.448,-1 -1,-1 h -10 c -0.552,0 -1,0.447 -1,1 0,0.553 0.448,1 1,1 z"
   id="path6"
   inkscape:connector-curvature="0" />
			<path
   style="fill:#d5d0bb"
   d="m 36.5,29 h -25 c -0.552,0 -1,0.447 -1,1 0,0.553 0.448,1 1,1 h 25 c 0.552,0 1,-0.447 1,-1 0,-0.553 -0.448,-1 -1,-1 z"
   id="path8"
   inkscape:connector-curvature="0" />
			<path
   style="fill:#d5d0bb"
   d="m 36.5,37 h -25 c -0.552,0 -1,0.447 -1,1 0,0.553 0.448,1 1,1 h 25 c 0.552,0 1,-0.447 1,-1 0,-0.553 -0.448,-1 -1,-1 z"
   id="path10"
   inkscape:connector-curvature="0" />
			<path
   style="fill:#d5d0bb"
   d="m 36.5,45 h -25 c -0.552,0 -1,0.447 -1,1 0,0.553 0.448,1 1,1 h 25 c 0.552,0 1,-0.447 1,-1 0,-0.553 -0.448,-1 -1,-1 z"
   id="path12"
   inkscape:connector-curvature="0" />
		</g>
		<polygon
   style="fill:#d5d0bb"
   points="32.5,14 46.5,14 32.5,0 "
   id="polygon16" />
	</g>
	<g
   id="g26">
		<rect
   x="34.5"
   y="36"
   style="fill:#21ae5e"
   width="22"
   height="22"
   id="rect20" />
		<rect
   x="44.5"
   y="37.585999"
   style="fill:#ffffff"
   width="2"
   height="16"
   id="rect22" />
		<polygon
   style="fill:#ffffff"
   points="38.5,48.293 39.976,46.879 45.5,52.172 51.024,46.879 52.5,48.293 45.5,55 "
   id="polygon24" />
	</g>
</g>
<g
   id="g30"
   transform="translate(0,966)">
</g>
<g
   id="g32"
   transform="translate(0,966)">
</g>
<g
   id="g34"
   transform="translate(0,966)">
</g>
<g
   id="g36"
   transform="translate(0,966)">
</g>
<g
   id="g38"
   transform="translate(0,966)">
</g>
<g
   id="g40"
   transform="translate(0,966)">
</g>
<g
   id="g42"
   transform="translate(0,966)">
</g>
<g
   id="g44"
   transform="translate(0,966)">
</g>
<g
   id="g46"
   transform="translate(0,966)">
</g>
<g
   id="g48"
   transform="translate(0,966)">
</g>
<g
   id="g50"
   transform="translate(0,966)">
</g>
<g
   id="g52"
   transform="translate(0,966)">
</g>
<g
   id="g54"
   transform="translate(0,966)">
</g>
<g
   id="g56"
   transform="translate(0,966)">
</g>
<g
   id="g58"
   transform="translate(0,966)">
</g>
</svg>