<?xml version="1.0" encoding="UTF-8" standalone="no"?>
<svg
   viewBox="0 0 48 35.15625"
   width="1024"
   height="750"
   version="1.1"
   id="svg6"
   sodipodi:docname="search_1.svg"
   inkscape:version="1.2.1 (9c6d41e410, 2022-07-14, custom)"
   xmlns:inkscape="http://www.inkscape.org/namespaces/inkscape"
   xmlns:sodipodi="http://sodipodi.sourceforge.net/DTD/sodipodi-0.dtd"
   xmlns="http://www.w3.org/2000/svg"
   xmlns:svg="http://www.w3.org/2000/svg">
  <defs
     id="defs10" />
  <sodipodi:namedview
     id="namedview8"
     pagecolor="#ffffff"
     bordercolor="#000000"
     borderopacity="0.25"
     inkscape:showpageshadow="2"
     inkscape:pageopacity="0.0"
     inkscape:pagecheckerboard="0"
     inkscape:deskcolor="#d1d1d1"
     showgrid="false"
     inkscape:zoom="0.50683594"
     inkscape:cx="755.66859"
     inkscape:cy="443.93064"
     inkscape:window-width="1366"
     inkscape:window-height="699"
     inkscape:window-x="0"
     inkscape:window-y="0"
     inkscape:window-maximized="1"
     inkscape:current-layer="svg6" />
  <path
     fill="#ffa000"
     d="M 38.691058,4.3945313 H 20.483502 L 15.931612,0 H 4.5518892 C 2.0483502,0 0,1.9775392 0,4.3945313 V 30.761719 c 0,2.416993 2.0483502,4.394531 4.5518892,4.394531 H 39.82903 c 1.934553,0 3.413918,-1.428222 3.413918,-3.295898 V 8.7890627 c 0,-2.4169924 -2.048351,-4.3945314 -4.55189,-4.3945314 z"
     id="path2"
     style="stroke-width:1.11813" />
  <path
     fill="#ffca28"
     d="M 43.470542,10.986328 H 12.859087 c -2.162146,0 -4.0967004,1.538086 -4.438092,3.625488 L 4.5518892,35.15625 H 40.625611 c 2.162147,0 4.0967,-1.538086 4.438092,-3.625489 l 2.844931,-15.380858 c 0.568985,-2.63672 -1.593162,-5.163575 -4.438092,-5.163575 z"
     id="path4"
     style="stroke-width:1.11813" />
</svg>
