<?xml version="1.0" encoding="UTF-8" standalone="no"?>
<svg
        xmlns:dc="http://purl.org/dc/elements/1.1/"
        xmlns:cc="http://creativecommons.org/ns#"
        xmlns:rdf="http://www.w3.org/1999/02/22-rdf-syntax-ns#"
        xmlns="http://www.w3.org/2000/svg"
        xmlns:sodipodi="http://sodipodi.sourceforge.net/DTD/sodipodi-0.dtd"
        xmlns:inkscape="http://www.inkscape.org/namespaces/inkscape"
        viewBox="0 0 1024 1024"
        version="1.1"
        id="svg5"
        sodipodi:docname="18198921381600005533.svg"
        width="1024"
        height="1024"
        inkscape:version="0.92.5 (2060ec1f9f, 2020-04-08)">
    <metadata
            id="metadata11">
        <rdf:RDF>
            <cc:Work
                    rdf:about="">
                <dc:format>image/svg+xml</dc:format>
                <dc:type
                        rdf:resource="http://purl.org/dc/dcmitype/StillImage"/>
                <dc:title></dc:title>
            </cc:Work>
        </rdf:RDF>
    </metadata>
    <defs
            id="defs9"/>
    <sodipodi:namedview
            pagecolor="#ffffff"
            bordercolor="#666666"
            borderopacity="1"
            objecttolerance="10"
            gridtolerance="10"
            guidetolerance="10"
            inkscape:pageopacity="0"
            inkscape:pageshadow="2"
            inkscape:window-width="640"
            inkscape:window-height="480"
            id="namedview7"
            showgrid="false"
            inkscape:zoom="0.23046875"
            inkscape:cx="576.32136"
            inkscape:cy="511.45168"
            inkscape:window-x="562"
            inkscape:window-y="85"
            inkscape:window-maximized="0"
            inkscape:current-layer="svg5"/>
    <ellipse
            style="fill:#ffffff;fill-opacity:1;stroke:none;stroke-width:5;stroke-miterlimit:4;stroke-dasharray:none;stroke-opacity:1"
            id="path13"
            cx="514.16949"
            cy="496.81357"
            rx="258.16949"
            ry="253.83051"/>
    <g
            id="Layer_65"
            data-name="Layer 65"
            style="fill:#666666"
            transform="matrix(21.805791,0,0,21.805792,-186.65757,-186.65757)">
        <path
                d="m 53.94,26.57 h -3.22 a 18.83,18.83 0 0 0 -1.65,-4 l 2.28,-2.28 a 1.49,1.49 0 0 0 0,-2.12 l -5.56,-5.56 a 1.49,1.49 0 0 0 -2.12,0 l -2.28,2.28 a 18.83,18.83 0 0 0 -4,-1.65 v -3.18 a 1.5,1.5 0 0 0 -1.5,-1.5 h -7.82 a 1.5,1.5 0 0 0 -1.5,1.5 v 3.22 a 18.83,18.83 0 0 0 -4,1.65 l -2.28,-2.28 a 1.49,1.49 0 0 0 -2.12,0 l -5.56,5.56 a 1.49,1.49 0 0 0 0,2.12 l 2.28,2.28 a 18.83,18.83 0 0 0 -1.65,4 h -3.18 a 1.5,1.5 0 0 0 -1.5,1.5 v 7.86 a 1.5,1.5 0 0 0 1.5,1.5 h 3.22 a 18.83,18.83 0 0 0 1.65,4 l -2.28,2.28 a 1.49,1.49 0 0 0 0,2.12 l 5.56,5.56 a 1.49,1.49 0 0 0 2.12,0 l 2.28,-2.28 a 18.83,18.83 0 0 0 4,1.65 v 3.22 a 1.5,1.5 0 0 0 1.5,1.5 h 7.86 a 1.5,1.5 0 0 0 1.5,-1.5 v -3.3 a 18.83,18.83 0 0 0 4,-1.65 l 2.28,2.28 a 1.49,1.49 0 0 0 2.12,0 l 5.56,-5.56 a 1.49,1.49 0 0 0 0,-2.12 l -2.28,-2.28 a 18.83,18.83 0 0 0 1.65,-4 h 3.22 a 1.5,1.5 0 0 0 1.5,-1.5 v -7.82 a 1.5,1.5 0 0 0 -1.58,-1.5 z M 39.46,32 A 7.46,7.46 0 0 1 32,39.46 C 22.12,39.11 22.12,24.88 32,24.54 A 7.46,7.46 0 0 1 39.46,32 Z"
                id="path2"
                style="fill:#666666"
                inkscape:connector-curvature="0"/>
    </g>
</svg>
